<?xml version="1.0" encoding="UTF-8"?>
<svg id="Capa_1" xmlns="http://www.w3.org/2000/svg" version="1.1" viewBox="0 0 1080 1080">
  <!-- Generator: Adobe Illustrator 29.5.1, SVG Export Plug-In . SVG Version: 2.1.0 Build 141)  -->
  <defs>
    <style>
      .st0 {
        fill: #083a84;
      }

      .st1 {
        fill: #0a2bfe;
      }

      .st2 {
        fill: #1a183c;
      }
    </style>
  </defs>
  <path class="st2" d="M720,0v45h90v45h45v45h90v90h45v45h45v90h45v360h-45v90h-45v45h-45v90h-90v45h-45v45h-90v45h-360v-45h-90v-45h-45v-45h-90v-90h-45v-45h-45v-90H0v-360h45v-90h45v-45h45v-90h90v-45h45v-45h90V0h360ZM675,180h-270v45h-90v45h-45v45h-45v90h-45v270h45v90h45v45h45v45h90v45h270v-45h90v-45h45v-45h45v-90h45v-270h-45v-90h-45v-45h-45v-45h-90v-45Z"/>
  <path class="st1" d="M675,180v45h90v45h45v45h45v90h45v270h-45v90h-45v45h-45v45h-90v45h-270v-45h-90v-45h-45v-45h-45v-90h-45v-270h45v-90h45v-45h45v-45h90v-45h270ZM405,315h-90v45h-45v90h45v45h90v-45h45v-90h-45v-45ZM765,360h-135v45h-45v45h-45v45h-45v45h-45v45h-45v45h-45v45h-45v45h135v-45h45v-45h45v-45h45v-45h45v-45h45v-45h45v-45h45v-45ZM765,585h-90v45h-45v90h45v45h90v-45h45v-90h-45v-45Z"/>
  <polygon class="st0" points="765 360 765 405 720 405 720 450 675 450 675 495 630 495 630 540 585 540 585 585 540 585 540 630 495 630 495 675 450 675 450 720 315 720 315 675 360 675 360 630 405 630 405 585 450 585 450 540 495 540 495 495 540 495 540 450 585 450 585 405 630 405 630 360 765 360"/>
  <polygon class="st0" points="405 315 405 360 450 360 450 450 405 450 405 495 315 495 315 450 270 450 270 360 315 360 315 315 405 315"/>
  <polygon class="st0" points="765 585 765 630 810 630 810 720 765 720 765 765 675 765 675 720 630 720 630 630 675 630 675 585 765 585"/>
</svg>