<?xml version="1.0" encoding="UTF-8"?>
<svg id="Capa_1" xmlns="http://www.w3.org/2000/svg" version="1.1" viewBox="0 0 1040 208">
  <!-- Generator: Adobe Illustrator 29.5.1, SVG Export Plug-In . SVG Version: 2.1.0 Build 141)  -->
  <defs>
    <style>
      .st0 {
        fill: #df428e;
      }

      .st1 {
        fill: #d0026a;
      }

      .st2 {
        fill: #1a183c;
      }
    </style>
  </defs>
  <path class="st2" d="M0,52V0h1040v52h-52v104h52v52H0v-52h52V52H0ZM1027,13H13v26h1014V13ZM975,52H65v104h910V52ZM1027,169H13v26h1014v-26Z"/>
  <path class="st0" d="M975,52v104H65V52h910ZM494,65H91v13h403v-13ZM611,78c-.03-4.32.02-8.68,0-13h-78v13.01s-13.01-.01-13.01-.01v13.01s-12.99,0-12.99,0v39h13.01s0,13,0,13h65v-39h-26v13.01s13.01-.01,13.01-.01v13.01h-39.01v-13.01s-13.01.01-13.01.01v-13.01s13.01.01,13.01.01v-13.01s13,.01,13,.01v-13.01c21.64.06,43.34-.07,64.99,0,.03,4.32-.02,8.68,0,13.01h13.01s0,12.99,0,12.99h-26v13h39v-39c-8.65-.02-17.35.03-26,0ZM741,78c-.03-4.32.02-8.68,0-13h-91v13.01c30.31.07,60.68-.11,91,0,.03,4.32-.02,8.68,0,13h39v-13.01c-12.98-.02-26.01.05-39,0ZM871,78c-25.98.05-52.02-.03-78.01,0v13.01h78.01c.02-4.32-.03-8.68,0-13,25.98-.05,52.02.03,78.01,0v-13.01h-78.01c-.02,4.32.03,8.68,0,13ZM390,104c-.03-4.32.02-8.68,0-13H91v13.01c99.65.06,199.35-.1,299,0,.03,4.32-.02,8.68,0,13h104v-13.01c-34.65-.02-69.35.04-104,0ZM962,104h-312v13h312v-13ZM494,130H91v13h403v-13ZM962,130h-364v13h364v-13Z"/>
  <rect class="st1" x="13" y="13" width="1014" height="26"/>
  <rect class="st1" x="13" y="169" width="1014" height="26"/>
  <rect class="st1" x="91" y="65" width="403" height="13"/>
  <rect class="st1" x="91" y="130" width="403" height="13"/>
  <rect class="st1" x="598" y="130" width="364" height="13"/>
  <rect class="st1" x="650" y="104" width="312" height="13"/>
  <path class="st1" d="M390,104c-99.65-.1-199.35.07-299.01,0v-13.01h299.01c.02,4.32-.03,8.68,0,13,34.65.03,69.35-.02,104.01,0v13.01h-104.01c-.02-4.32.03-8.68,0-13Z"/>
  <path class="st1" d="M611,78c-21.65-.07-43.35.06-65.01,0v13.01s-13-.01-13-.01v13.01s-13-.01-13-.01v13.01h13.01s0,12.99,0,12.99h39v-13.01s-13.01.01-13.01.01v-13.01h26.01v39h-65v-13.01s-13,0-13,0v-39h13.01s-.01-13.01-.01-13.01h13.01s0-12.99,0-12.99h78c.02,4.32-.03,8.68,0,13,8.65.03,17.35-.02,26,0v39h-39v-13h26v-13.01s-13.01.01-13.01.01c-.01-4.32.03-8.68,0-13.01Z"/>
  <path class="st1" d="M741,78c-30.32-.1-60.69.07-91.01,0v-13.01h91.01c.02,4.32-.03,8.68,0,13,12.99.04,26.02-.03,39.01,0v13.01h-39.01c-.02-4.32.03-8.68,0-13Z"/>
  <path class="st1" d="M871,78c.03-4.32-.02-8.68,0-13h78v13.01c-25.98.03-52.02-.06-78,0-.03,4.32.02,8.68,0,13h-78v-13.01c25.98-.03,52.02.06,78,0Z"/>
</svg>