<?xml version="1.0" encoding="UTF-8"?>
<svg id="Capa_1" xmlns="http://www.w3.org/2000/svg" version="1.1" viewBox="0 0 1040 208">
  <!-- Generator: Adobe Illustrator 29.5.1, SVG Export Plug-In . SVG Version: 2.1.0 Build 141)  -->
  <defs>
    <style>
      .st0 {
        fill: #aaaace;
      }

      .st1 {
        fill: #ededfe;
      }

      .st2 {
        fill: #1a183c;
      }

      .st3 {
        fill: #c7c7e2;
      }
    </style>
  </defs>
  <path class="st2" d="M0,52V0h1040v52h-52v104h52v52H0v-52h52V52H0ZM1027,13H13v26h1014V13ZM533,52c-155.98-.02-312.02.02-468,0v104c125.65.02,251.35-.02,377,0,17.32,0,34.68,0,52,0h65c34.65,0,69.35,0,104,0,103.98-.02,208.02.01,312,0V52c-73.65-.02-147.35.03-221,0-34.65-.01-69.35,0-104,0-21.65,0-43.35,0-65,0h-52ZM1027,169H13v26h1014v-26Z"/>
  <path class="st1" d="M533,52v13.01s-13.01-.01-13.01-.01v13.01s-13-.01-13-.01v13.01s-13-.01-13-.01v13.01s-13-.01-13-.01v13.01s-13-.01-13-.01v13.01s-13-.01-13-.01v13.01s-13-.01-13-.01v13.01c-125.64-.02-251.35.02-376.99,0V52c155.98.02,312.02-.02,468,0ZM130,65h-39v26h39v-26ZM130,117h-39v26h39v-26Z"/>
  <rect class="st0" x="13" y="13" width="1014" height="26"/>
  <rect class="st0" x="13" y="169" width="1014" height="26"/>
  <path class="st1" d="M754,52c73.65.03,147.35-.02,221,0v104c-103.98.01-208.02-.02-312,0v-13.01s13.01.01,13.01.01v-13.01s13,.01,13,.01v-13.01s13,.01,13,.01v-13.01s13,.01,13,.01v-13.01s13,.01,13,.01v-13.01s13,.01,13,.01v-13.01s13,.01,13,.01v-13.01ZM949,65h-39v26h39v-26ZM949,117h-39v26h39v-26Z"/>
  <path class="st3" d="M754,52v13.01s-13.01-.01-13.01-.01v13.01s-13-.01-13-.01v13.01s-13-.01-13-.01v13.01s-13-.01-13-.01v13.01s-13-.01-13-.01v13.01s-13-.01-13-.01v13.01s-13-.01-13-.01v13.01c-34.64,0-69.35,0-103.99,0v-13.01s13.01.01,13.01.01v-13.01s13,.01,13,.01v-13.01s13,.01,13,.01v-13.01s13,.01,13,.01v-13.01s13,.01,13,.01v-13.01s13,.01,13,.01v-13.01s13,.01,13,.01v-13.01c34.64,0,69.35-.01,103.99,0Z"/>
  <path class="st1" d="M650,52v13.01s-13.01-.01-13.01-.01v13.01s-13-.01-13-.01v13.01s-13-.01-13-.01v13.01s-13-.01-13-.01v13.01s-13-.01-13-.01v13.01s-13-.01-13-.01v13.01s-13-.01-13-.01v13.01s-64.99,0-64.99,0v-13.01s13.01.01,13.01.01v-13.01s13,.01,13,.01v-13.01s13,.01,13,.01v-13.01s13,.01,13,.01v-13.01s13,.01,13,.01v-13.01s13,.01,13,.01v-13.01s13,.01,13,.01v-13.01c21.65,0,43.34,0,64.99,0Z"/>
  <path class="st3" d="M585,52v13.01s-13.01-.01-13.01-.01v13.01s-13-.01-13-.01v13.01s-13-.01-13-.01v13.01s-13-.01-13-.01v13.01s-13-.01-13-.01v13.01s-13-.01-13-.01v13.01s-13-.01-13-.01v13.01c-17.31,0-34.68,0-51.99,0v-13.01s13.01.01,13.01.01v-13.01s13,.01,13,.01v-13.01s13,.01,13,.01v-13.01s13,.01,13,.01v-13.01s13,.01,13,.01v-13.01s13,.01,13,.01v-13.01s13,.01,13,.01v-13.01s51.99,0,51.99,0Z"/>
  <rect class="st2" x="91" y="65" width="39" height="26"/>
  <rect class="st2" x="91" y="117" width="39" height="26"/>
  <rect class="st2" x="910" y="65" width="39" height="26"/>
  <rect class="st2" x="910" y="117" width="39" height="26"/>
</svg>