<?xml version="1.0" encoding="UTF-8"?><svg id="Capa_2" xmlns="http://www.w3.org/2000/svg" viewBox="0 0 74.15 90.57"><defs><style>.cls-1{fill:#e90243;}</style></defs><g id="Capa_4"><rect class="cls-1" x="32.95" width="8.24" height="8.24"/><rect class="cls-1" x="57.69" y="57.62" width="8.24" height="8.24"/><rect class="cls-1" x="57.69" y="49.39" width="8.24" height="8.24"/><rect class="cls-1" x="57.67" y="41.16" width="8.24" height="8.24"/><rect class="cls-1" x="41.2" y="8.21" width="8.24" height="8.24"/><rect class="cls-1" x="57.76" y="8.21" width="8.24" height="8.24"/><rect class="cls-1" x="65.91" y="8.21" width="8.24" height="8.24"/><rect class="cls-1" x="49.52" y="16.45" width="8.24" height="8.24"/><rect class="cls-1" x="65.91" y="16.45" width="8.24" height="8.24"/><rect class="cls-1" x="65.91" y="24.68" width="8.24" height="8.24"/><rect class="cls-1" x="65.91" y="32.92" width="8.24" height="8.24"/><rect class="cls-1" x="49.45" y="65.86" width="8.24" height="8.24"/><rect class="cls-1" x="41.21" y="74.1" width="8.24" height="8.24"/><rect class="cls-1" x="32.97" y="82.34" width="8.24" height="8.24"/><rect class="cls-1" x="8.23" y="57.62" width="8.24" height="8.24"/><rect class="cls-1" x="8.23" y="49.39" width="8.24" height="8.24"/><rect class="cls-1" x="8.24" y="41.16" width="8.24" height="8.24"/><rect class="cls-1" x="8.16" y="8.21" width="8.24" height="8.24"/><rect class="cls-1" x="0" y="8.21" width="8.24" height="8.24"/><rect class="cls-1" x="16.39" y="16.45" width="8.24" height="8.24"/><rect class="cls-1" x="24.72" y="16.45" width="8.24" height="8.24"/><rect class="cls-1" x="41.28" y="16.45" width="8.24" height="8.24"/><rect class="cls-1" x="0" y="16.45" width="8.24" height="8.24"/><rect class="cls-1" x="0" y="24.68" width="8.24" height="8.24"/><rect class="cls-1" x="0" y="32.92" width="8.24" height="8.24"/><rect class="cls-1" x="16.46" y="65.86" width="8.24" height="8.24"/><rect class="cls-1" x="24.7" y="74.1" width="8.24" height="8.24"/><rect class="cls-1" x="24.7" y="8.2" width="8.24" height="8.24"/><rect class="cls-1" x="32.96" y="8.21" width="8.24" height="8.24"/></g></svg>