<svg width="80" height="80" viewBox="0 0 80 80" fill="none" xmlns="http://www.w3.org/2000/svg">
<path d="M80 13.3334V20H76.6667V23.3334H80V30H76.6667V33.3334H80V40H76.6667V43.3334H80V50H76.6667V53.3334H80V60H76.6667V63.3334H80V70H0V63.3334H3.33333V60H0V53.3334H3.33333V50H0V43.3334H3.33333V40H0V33.3334H3.33333V30H0V23.3334H3.33333V20H0V13.3334H80ZM63.3333 16.6667H6.66667V66.6667H63.3333V63.3334H70V66.6667H73.3333V16.6667H70V20H63.3333V16.6667Z" fill="#1A1A3D"/>
<path d="M63.3334 16.6666V20H70.0001V16.6666H73.3334V66.6666H70.0001V63.3333H63.3334V66.6666H6.66675V16.6666H63.3334ZM56.6668 20H10.0001V63.3333H56.6668V20ZM70.0001 23.3333H63.3334V30H70.0001V23.3333ZM70.0001 33.3333H63.3334V40H70.0001V33.3333ZM70.0001 43.3333H63.3334V50H70.0001V43.3333ZM70.0001 53.3333H63.3334V60H70.0001V53.3333Z" fill="#2A67FB"/>
<path d="M56.6667 20V63.3333H10V20H56.6667ZM53.3333 23.3333H13.3333V60H53.3333V23.3333Z" fill="#F2F4FC"/>
<path d="M69.9999 23.3334H63.3333V30H69.9999V23.3334Z" fill="#1A1A3D"/>
<path d="M69.9999 33.3334H63.3333V40H69.9999V33.3334Z" fill="#1A1A3D"/>
<path d="M69.9999 43.3334H63.3333V50H69.9999V43.3334Z" fill="#1A1A3D"/>
<path d="M69.9999 53.3334H63.3333V60H69.9999V53.3334Z" fill="#1A1A3D"/>
<path d="M53.3333 23.3334V60H13.3333V23.3334H53.3333ZM26.6666 26.6667H19.9999V30H16.6666V36.6667H19.9999V40H26.6666V36.6667H29.9999V30H26.6666V26.6667ZM49.9999 26.6667H43.3333V30H39.9999V33.3334H36.6666V36.6667H33.3333V40H29.9999V43.3334H26.6666V46.6667H23.3333V50H19.9999V53.3334H16.6666V56.6667H23.3333V53.3334H26.6666V50H29.9999V46.6667H33.3333V43.3334H36.6666V40H39.9999V36.6667H43.3333V33.3334H46.6666V30H49.9999V26.6667ZM46.6666 43.3334H39.9999V46.6667H36.6666V53.3334H39.9999V56.6667H46.6666V53.3334H49.9999V46.6667H46.6666V43.3334Z" fill="#2A67FB"/>
<path d="M50.0001 26.6666V30H46.6668V33.3333H43.3334V36.6666H40.0001V40H36.6668V43.3333H33.3334V46.6666H30.0001V50H26.6667V53.3333H23.3334V56.6666H16.6667V53.3333H20.0001V50H23.3334V46.6666H26.6667V43.3333H30.0001V40H33.3334V36.6666H36.6668V33.3333H40.0001V30H43.3334V26.6666H50.0001Z" fill="#F2F4FC"/>
<path d="M26.6667 26.6666V30H30.0001V36.6666H26.6667V40H20.0001V36.6666H16.6667V30H20.0001V26.6666H26.6667Z" fill="#F2F4FC"/>
<path d="M46.6667 43.3334V46.6667H50.0001V53.3334H46.6667V56.6667H40.0001V53.3334H36.6667V46.6667H40.0001V43.3334H46.6667Z" fill="#F2F4FC"/>
</svg>
