<svg width="124" height="124" viewBox="0 0 124 124" fill="none" xmlns="http://www.w3.org/2000/svg">
<path d="M124 20.667V31.0003H118.833V36.167H124V46.5003H118.833V51.667H124V62.0003H118.833V67.167H124V77.5003H118.833V82.667H124V93.0003H118.833V98.167H124V108.5H0V98.167H5.16667V93.0003H0V82.667H5.16667V77.5003H0V67.167H5.16667V62.0003H0V51.667H5.16667V46.5003H0V36.167H5.16667V31.0003H0V20.667H124ZM98.1667 25.8337H10.3333V103.334H98.1667V98.167H108.5V103.334H113.667V25.8337H108.5V31.0003H98.1667V25.8337Z" fill="#1A1A3D"/>
<path d="M98.1673 25.833V30.9997H108.501V25.833H113.667V103.333H108.501V98.1663H98.1673V103.333H10.334V25.833H98.1673ZM87.834 30.9997H15.5007V98.1663H87.834V30.9997ZM108.501 36.1663H98.1673V46.4997H108.501V36.1663ZM108.501 51.6663H98.1673V61.9997H108.501V51.6663ZM108.501 67.1663H98.1673V77.4997H108.501V67.1663ZM108.501 82.6663H98.1673V92.9997H108.501V82.6663Z" fill="#2A67FB"/>
<path d="M87.8333 31V98.1667H15.5V31H87.8333ZM82.6667 36.1667H20.6667V93H82.6667V36.1667Z" fill="#F2F4FC"/>
<path d="M108.499 36.167H98.166V46.5003H108.499V36.167Z" fill="#1A1A3D"/>
<path d="M108.499 51.667H98.166V62.0003H108.499V51.667Z" fill="#1A1A3D"/>
<path d="M108.499 67.167H98.166V77.5003H108.499V67.167Z" fill="#1A1A3D"/>
<path d="M108.499 82.667H98.166V93.0003H108.499V82.667Z" fill="#1A1A3D"/>
<path d="M82.666 36.167V93.0003H20.666V36.167H82.666ZM41.3327 41.3337H30.9993V46.5003H25.8327V56.8337H30.9993V62.0003H41.3327V56.8337H46.4993V46.5003H41.3327V41.3337ZM77.4994 41.3337H67.166V46.5003H61.9994V51.667H56.8327V56.8337H51.666V62.0003H46.4993V67.167H41.3327V72.3337H36.166V77.5003H30.9993V82.667H25.8327V87.8337H36.166V82.667H41.3327V77.5003H46.4993V72.3337H51.666V67.167H56.8327V62.0003H61.9994V56.8337H67.166V51.667H72.3327V46.5003H77.4994V41.3337ZM72.3327 67.167H61.9994V72.3337H56.8327V82.667H61.9994V87.8337H72.3327V82.667H77.4994V72.3337H72.3327V67.167Z" fill="#2A67FB"/>
<path d="M77.5006 41.333V46.4997H72.334V51.6663H67.1673V56.833H62.0006V61.9997H56.834V67.1663H51.6673V72.333H46.5007V77.4997H41.334V82.6663H36.1673V87.833H25.834V82.6663H31.0007V77.4997H36.1673V72.333H41.334V67.1663H46.5007V61.9997H51.6673V56.833H56.834V51.6663H62.0006V46.4997H67.1673V41.333H77.5006Z" fill="#F2F4FC"/>
<path d="M41.334 41.333V46.4997H46.5007V56.833H41.334V61.9997H31.0007V56.833H25.834V46.4997H31.0007V41.333H41.334Z" fill="#F2F4FC"/>
<path d="M72.334 67.167V72.3337H77.5007V82.667H72.334V87.8337H62.0007V82.667H56.834V72.3337H62.0007V67.167H72.334Z" fill="#F2F4FC"/>
</svg>
