<svg width="124" height="124" viewBox="0 0 124 124" fill="none" xmlns="http://www.w3.org/2000/svg">
<g clip-path="url(#clip0_7141_10834)">
<path d="M82.6667 0V5.16667H93V10.3333H98.1667V15.5H108.5V25.8333H113.667V31H118.833V41.3333H124V82.6667H118.833V93H113.667V98.1667H108.5V108.5H98.1667V113.667H93V118.833H82.6667V124H41.3333V118.833H31V113.667H25.8333V108.5H15.5V98.1667H10.3333V93H5.16667V82.6667H0V41.3333H5.16667V31H10.3333V25.8333H15.5V15.5H25.8333V10.3333H31V5.16667H41.3333V0H82.6667ZM77.5 20.6667H46.5V25.8333H36.1667V31H31V36.1667H25.8333V46.5H20.6667V77.5H25.8333V87.8333H31V93H36.1667V98.1667H46.5V103.333H77.5V98.1667H87.8333V93H93V87.8333H98.1667V77.5H103.333V46.5H98.1667V36.1667H93V31H87.8333V25.8333H77.5V20.6667Z" fill="#1A1A3D"/>
<path d="M77.4994 20.667V25.8337H87.8327V31.0003H92.9994V36.167H98.166V46.5003H103.333V77.5003H98.166V87.8337H92.9994V93.0003H87.8327V98.167H77.4994V103.334H46.4994V98.167H36.166V93.0003H30.9993V87.8337H25.8327V77.5003H20.666V46.5003H25.8327V36.167H30.9993V31.0003H36.166V25.8337H46.4994V20.667H77.4994ZM46.4994 36.167H36.166V41.3337H30.9993V51.667H36.166V56.8337H46.4994V51.667H51.666V41.3337H46.4994V36.167ZM87.8327 41.3337H72.3327V46.5003H67.166V51.667H61.9994V56.8337H56.8327V62.0003H51.666V67.167H46.4994V72.3337H41.3327V77.5003H36.166V82.667H51.666V77.5003H56.8327V72.3337H61.9994V67.167H67.166V62.0003H72.3327V56.8337H77.4994V51.667H82.666V46.5003H87.8327V41.3337ZM87.8327 67.167H77.4994V72.3337H72.3327V82.667H77.4994V87.8337H87.8327V82.667H92.9994V72.3337H87.8327V67.167Z" fill="#2A67FB"/>
<path d="M87.8327 41.333V46.4997H82.666V51.6663H77.4994V56.833H72.3327V61.9997H67.166V67.1663H61.9993V72.333H56.8327V77.4997H51.666V82.6663H36.166V77.4997H41.3327V72.333H46.4993V67.1663H51.666V61.9997H56.8327V56.833H61.9993V51.6663H67.166V46.4997H72.3327V41.333H87.8327Z" fill="#F2F4FC"/>
<path d="M46.5 36.167V41.3337H51.6667V51.667H46.5V56.8337H36.1667V51.667H31V41.3337H36.1667V36.167H46.5Z" fill="#F2F4FC"/>
<path d="M87.834 67.167V72.3337H93.0006V82.667H87.834V87.8337H77.5007V82.667H72.334V72.3337H77.5007V67.167H87.834Z" fill="#F2F4FC"/>
</g>
<defs>
<clipPath id="clip0_7141_10834">
<rect width="124" height="124" fill="white"/>
</clipPath>
</defs>
</svg>
