<svg width="32" height="32" viewBox="0 0 32 32" fill="none" xmlns="http://www.w3.org/2000/svg">
<path d="M15.9853 11.1654C13.3148 11.1654 11.1607 13.324 11.1607 16.0001C11.1607 18.6762 13.3148 20.8348 15.9853 20.8348C18.6559 20.8348 20.81 18.6762 20.81 16.0001C20.81 13.324 18.6559 11.1654 15.9853 11.1654ZM15.9853 19.1433C14.2595 19.1433 12.8487 17.7337 12.8487 16.0001C12.8487 14.2665 14.2553 12.8569 15.9853 12.8569C17.7153 12.8569 19.122 14.2665 19.122 16.0001C19.122 17.7337 17.7111 19.1433 15.9853 19.1433V19.1433ZM22.1326 10.9676C22.1326 11.5946 21.6288 12.0953 21.0073 12.0953C20.3817 12.0953 19.882 11.5904 19.882 10.9676C19.882 10.3449 20.3859 9.83992 21.0073 9.83992C21.6288 9.83992 22.1326 10.3449 22.1326 10.9676ZM25.3281 12.1121C25.2567 10.6015 24.9124 9.26346 23.808 8.16102C22.7079 7.05858 21.3726 6.71355 19.8652 6.63781C18.3116 6.54944 13.6549 6.54944 12.1013 6.63781C10.598 6.70934 9.26276 7.05438 8.15843 8.15681C7.0541 9.25925 6.71398 10.5973 6.6384 12.1079C6.55022 13.6648 6.55022 18.3312 6.6384 19.8881C6.70978 21.3987 7.0541 22.7368 8.15843 23.8392C9.26276 24.9416 10.5938 25.2867 12.1013 25.3624C13.6549 25.4508 18.3116 25.4508 19.8652 25.3624C21.3726 25.2909 22.7079 24.9458 23.808 23.8392C24.9082 22.7368 25.2525 21.3987 25.3281 19.8881C25.4162 18.3312 25.4162 13.669 25.3281 12.1121V12.1121ZM23.3209 21.5586C22.9934 22.3833 22.3594 23.0187 21.5322 23.3511C20.2935 23.8434 17.3542 23.7298 15.9853 23.7298C14.6165 23.7298 11.673 23.8392 10.4385 23.3511C9.61548 23.0229 8.98143 22.3875 8.64971 21.5586C8.15843 20.3173 8.2718 17.3718 8.2718 16.0001C8.2718 14.6284 8.16263 11.6787 8.64971 10.4416C8.97723 9.61691 9.61128 8.98154 10.4385 8.64912C11.6772 8.15681 14.6165 8.27042 15.9853 8.27042C17.3542 8.27042 20.2977 8.16102 21.5322 8.64912C22.3552 8.97733 22.9892 9.6127 23.3209 10.4416C23.8122 11.6829 23.6988 14.6284 23.6988 16.0001C23.6988 17.3718 23.8122 20.3215 23.3209 21.5586Z" fill="#F2F4FC"/>
</svg>
