<svg width="32" height="32" viewBox="0 0 32 32" fill="none" xmlns="http://www.w3.org/2000/svg">
<path d="M24.8632 11.6814C24.6576 10.9071 24.0517 10.2973 23.2825 10.0904C21.8882 9.71436 16.2971 9.71436 16.2971 9.71436C16.2971 9.71436 10.7061 9.71436 9.31176 10.0904C8.54251 10.2974 7.93666 10.9071 7.73103 11.6814C7.35742 13.0847 7.35742 16.0128 7.35742 16.0128C7.35742 16.0128 7.35742 18.9408 7.73103 20.3442C7.93666 21.1184 8.54251 21.7028 9.31176 21.9098C10.7061 22.2858 16.2971 22.2858 16.2971 22.2858C16.2971 22.2858 21.8881 22.2858 23.2825 21.9098C24.0517 21.7028 24.6576 21.1184 24.8632 20.3442C25.2368 18.9408 25.2368 16.0128 25.2368 16.0128C25.2368 16.0128 25.2368 13.0847 24.8632 11.6814V11.6814ZM14.4685 18.6712V13.3543L19.1415 16.0128L14.4685 18.6712V18.6712Z" fill="#F2F4FC"/>
</svg>
