<svg width="32" height="32" viewBox="0 0 32 32" fill="none" xmlns="http://www.w3.org/2000/svg">
<path d="M23.9082 7.40625H8.0957C7.71543 7.40625 7.4082 7.71348 7.4082 8.09375V23.9063C7.4082 24.2865 7.71543 24.5938 8.0957 24.5938H23.9082C24.2885 24.5938 24.5957 24.2865 24.5957 23.9063V8.09375C24.5957 7.71348 24.2885 7.40625 23.9082 7.40625ZM12.5064 22.0521H9.95625V13.8494H12.5064V22.0521ZM11.2324 12.7279C10.9401 12.7279 10.6543 12.6412 10.4112 12.4788C10.1681 12.3164 9.97869 12.0856 9.86681 11.8155C9.75494 11.5454 9.72567 11.2482 9.7827 10.9614C9.83973 10.6747 9.98051 10.4113 10.1872 10.2046C10.3939 9.99789 10.6573 9.85712 10.9441 9.80008C11.2308 9.74305 11.528 9.77232 11.7981 9.8842C12.0682 9.99607 12.299 10.1855 12.4614 10.4286C12.6239 10.6717 12.7105 10.9575 12.7105 11.2498C12.7084 12.0662 12.0467 12.7279 11.2324 12.7279ZM22.0541 22.0521H19.5061V18.0625C19.5061 17.1107 19.4889 15.8883 18.1805 15.8883C16.8549 15.8883 16.6508 16.9238 16.6508 17.9938V22.0521H14.1049V13.8494H16.5498V14.9709H16.5842C16.9236 14.3264 17.7551 13.6453 18.9969 13.6453C21.5793 13.6453 22.0541 15.3447 22.0541 17.5533V22.0521V22.0521Z" fill="#F2F4FC"/>
</svg>
