<svg width="32" height="32" viewBox="0 0 32 32" fill="none" xmlns="http://www.w3.org/2000/svg">
<path d="M23.9026 14.3026C22.2741 14.3065 20.6855 13.8008 19.3613 12.857V19.4393C19.3609 20.6584 18.9866 21.8484 18.2886 22.85C17.5907 23.8516 16.6022 24.6172 15.4554 25.0444C14.3086 25.4715 13.0582 25.5399 11.8714 25.2404C10.6845 24.9409 9.61776 24.2877 8.81378 23.3682C8.00981 22.4487 7.50692 21.3068 7.37236 20.0951C7.2378 18.8833 7.47799 17.6596 8.0608 16.5874C8.64361 15.5153 9.54127 14.6458 10.6338 14.0954C11.7262 13.5449 12.9614 13.3397 14.1742 13.5071V16.8177C13.6193 16.6439 13.0233 16.6492 12.4715 16.8327C11.9197 17.0162 11.4402 17.3687 11.1016 17.8397C10.763 18.3108 10.5825 18.8763 10.5859 19.4556C10.5893 20.0348 10.7765 20.5982 11.1207 21.0653C11.4649 21.5323 11.9485 21.8791 12.5024 22.0562C13.0564 22.2332 13.6523 22.2315 14.2052 22.0511C14.7581 21.8708 15.2396 21.5212 15.581 21.0521C15.9224 20.5831 16.1062 20.0186 16.1062 19.4393V6.57153H19.3613C19.3591 6.84523 19.3821 7.11856 19.4301 7.38806V7.38806C19.5432 7.98968 19.7784 8.562 20.1213 9.07001C20.4642 9.57802 20.9075 10.011 21.4242 10.3426C22.1594 10.8266 23.0213 11.0845 23.9026 11.0844V14.3026Z" fill="#F2F4FC"/>
</svg>
