<svg width="148" height="44" viewBox="0 0 148 44" fill="none" xmlns="http://www.w3.org/2000/svg">
<path d="M136.375 43.8606V32.4856H144.5V34.1106H146.125V35.7356H147.75V40.6106H146.125V42.2356H144.5V43.8606H136.375ZM139.625 42.2356H142.875V40.6106H144.5V35.7356H142.875V34.1106H139.625V42.2356Z" fill="white"/>
<path d="M123.375 43.8606V35.7356H125V34.1106H126.625V32.4856H131.5V34.1106H133.125V35.7356H134.75V43.8606H131.5V40.6106H126.625V43.8606H123.375ZM126.625 38.9856H131.5V35.7356H129.875V34.1106H128.25V35.7356H126.625V38.9856Z" fill="white"/>
<path d="M110.375 43.8606V32.4856H118.5V34.1106H120.125V35.7356H121.75V40.6106H120.125V42.2356H118.5V43.8606H110.375ZM113.625 42.2356H116.875V40.6106H118.5V35.7356H116.875V34.1106H113.625V42.2356Z" fill="white"/>
<path d="M99 43.8606V42.2356H102.25V34.1106H99V32.4856H108.75V34.1106H105.5V42.2356H108.75V43.8606H99Z" fill="white"/>
<path d="M84.375 43.8606V32.4856H94.125V34.1106H95.75V38.9856H92.5V40.6106H94.125V42.2356H95.75V43.8606H90.875V42.2356H89.25V40.6106H87.625V43.8606H84.375ZM87.625 38.9856H90.875V37.3606H92.5V34.1106H87.625V38.9856Z" fill="white"/>
<path d="M73 43.8606V42.2356H71.375V32.4856H74.625V42.2356H79.5V32.4856H82.75V42.2356H81.125V43.8606H73Z" fill="white"/>
<path d="M61.625 43.8606V42.2356H60V40.6106H58.375V35.7356H60V34.1106H61.625V32.4856H69.75V34.1106H63.25V35.7356H61.625V40.6106H63.25V42.2356H66.5V38.9856H64.875V37.3606H69.75V43.8606H61.625Z" fill="white"/>
<path d="M45.375 43.8606V32.4856H56.75V34.1106H48.625V37.3606H55.125V38.9856H48.625V42.2356H56.75V43.8606H45.375Z" fill="white"/>
<path d="M34 43.8606V42.2356H32.375V40.6106H35.625V42.2356H40.5V38.9856H34V37.3606H32.375V34.1106H34V32.4856H42.125V34.1106H43.75V35.7356H40.5V34.1106H35.625V37.3606H42.125V38.9856H43.75V42.2356H42.125V43.8606H34Z" fill="white"/>
<path d="M13 43.8606V32.4856H24.375V34.1106H16.25V37.3606H22.75V38.9856H16.25V42.2356H24.375V43.8606H13Z" fill="white"/>
<path d="M0 43.8606V32.4856H8.125V34.1106H9.75V35.7356H11.375V40.6106H9.75V42.2356H8.125V43.8606H0ZM3.25 42.2356H6.5V40.6106H8.125V35.7356H6.5V34.1106H3.25V42.2356Z" fill="white"/>
<path d="M123.151 24.4856V0.485596H144.45V3.91417H148V10.7713H144.45V14.1999H148V21.057H144.45V24.4856H123.151ZM130.251 10.7713H140.9V3.91417H130.251V10.7713ZM130.251 21.057H140.9V14.1999H130.251V21.057Z" fill="white"/>
<path d="M98.3026 24.4856V21.057H94.7528V0.485596H101.852V21.057H112.502V0.485596H119.601V21.057H116.052V24.4856H98.3026Z" fill="white"/>
<path d="M66.3542 24.4856V0.485596H73.4539V10.7713H84.1033V0.485596H91.203V24.4856H84.1033V14.1999H73.4539V24.4856H66.3542Z" fill="white"/>
<path d="M31.9483 24.4856V0.485596H39.048V21.057H53.2472V24.4856H31.9483Z" fill="white"/>
<path d="M0 24.4856V0.485596H24.8487V3.91417H7.09963V10.7713H21.2989V14.1999H7.09963V21.057H24.8487V24.4856H0Z" fill="white"/>
</svg>
