<svg width="80" height="80" viewBox="0 0 80 80" fill="none" xmlns="http://www.w3.org/2000/svg">
<g clip-path="url(#clip0_6973_2539)">
<path d="M53.3333 0V3.33333H60V6.66667H63.3333V10H70V16.6667H73.3333V20H76.6667V26.6667H80V53.3333H76.6667V60H73.3333V63.3333H70V70H63.3333V73.3333H60V76.6667H53.3333V80H26.6667V76.6667H20V73.3333H16.6667V70H10V63.3333H6.66667V60H3.33333V53.3333H0V26.6667H3.33333V20H6.66667V16.6667H10V10H16.6667V6.66667H20V3.33333H26.6667V0H53.3333ZM50 13.3333H30V16.6667H23.3333V20H20V23.3333H16.6667V30H13.3333V50H16.6667V56.6667H20V60H23.3333V63.3333H30V66.6667H50V63.3333H56.6667V60H60V56.6667H63.3333V50H66.6667V30H63.3333V23.3333H60V20H56.6667V16.6667H50V13.3333Z" fill="#1A1A3D"/>
<path d="M50.0007 13.3333V16.6666H56.6673V20H60.0007V23.3333H63.334V30H66.6673V50H63.334V56.6666H60.0007V60H56.6673V63.3333H50.0007V66.6666H30.0007V63.3333H23.334V60H20.0007V56.6666H16.6673V50H13.334V30H16.6673V23.3333H20.0007V20H23.334V16.6666H30.0007V13.3333H50.0007ZM30.0007 23.3333H23.334V26.6666H20.0007V33.3333H23.334V36.6666H30.0007V33.3333H33.334V26.6666H30.0007V23.3333ZM56.6673 26.6666H46.6673V30H43.334V33.3333H40.0007V36.6666H36.6673V40H33.334V43.3333H30.0007V46.6666H26.6673V50H23.334V53.3333H33.334V50H36.6673V46.6666H40.0007V43.3333H43.334V40H46.6673V36.6666H50.0007V33.3333H53.334V30H56.6673V26.6666ZM56.6673 43.3333H50.0007V46.6666H46.6673V53.3333H50.0007V56.6666H56.6673V53.3333H60.0007V46.6666H56.6673V43.3333Z" fill="#2A67FB"/>
<path d="M56.6673 26.6667V30H53.334V33.3334H50.0007V36.6667H46.6673V40H43.334V43.3334H40.0007V46.6667H36.6673V50H33.334V53.3334H23.334V50H26.6673V46.6667H30.0007V43.3334H33.334V40H36.6673V36.6667H40.0007V33.3334H43.334V30H46.6673V26.6667H56.6673Z" fill="#F2F4FC"/>
<path d="M30 23.3333V26.6666H33.3333V33.3333H30V36.6666H23.3333V33.3333H20V26.6666H23.3333V23.3333H30Z" fill="#F2F4FC"/>
<path d="M56.666 43.3333V46.6666H59.9993V53.3333H56.666V56.6666H49.9993V53.3333H46.666V46.6666H49.9993V43.3333H56.666Z" fill="#F2F4FC"/>
</g>
<defs>
<clipPath id="clip0_6973_2539">
<rect width="80" height="80" fill="white"/>
</clipPath>
</defs>
</svg>
