<svg width="76" height="76" viewBox="0 0 76 76" fill="none" xmlns="http://www.w3.org/2000/svg">
<g clip-path="url(#clip0_149_70)">
<path d="M46.1429 0V1.35714H50.2143V2.71429H54.2857V4.07143H57V5.42857H59.7143V6.78571H61.0714V8.14286H62.4286V9.5H63.7857V10.8571H65.1429V12.2143H66.5V13.5714H67.8571V14.9286H69.2143V17.6429H70.5714V19H71.9286V21.7143H73.2857V25.7857H74.6429V29.8571H76V46.1429H74.6429V50.2143H73.2857V54.2857H71.9286V57H70.5714V58.3571H69.2143V61.0714H67.8571V62.4286H66.5V63.7857H65.1429V65.1429H63.7857V66.5H62.4286V67.8571H61.0714V69.2143H58.3571V70.5714H57V71.9286H54.2857V73.2857H50.2143V74.6429H46.1429V76H29.8571V74.6429H25.7857V73.2857H21.7143V71.9286H19V70.5714H17.6429V69.2143H14.9286V67.8571H13.5714V66.5H12.2143V65.1429H10.8571V63.7857H9.5V62.4286H8.14286V61.0714H6.78571V58.3571H5.42857V57H4.07143V54.2857H2.71429V50.2143H1.35714V46.1429H0V29.8571H1.35714V25.7857H2.71429V21.7143H4.07143V19H5.42857V17.6429H6.78571V14.9286H8.14286V13.5714H9.5V12.2143H10.8571V10.8571H12.2143V9.5H13.5714V8.14286H14.9286V6.78571H16.2857V5.42857H19V4.07143H21.7143V2.71429H25.7857V1.35714H29.8571V0H46.1429ZM46.1429 2.71429H29.8571V5.42857H21.7143V6.78571H19V8.14286H17.6429V9.5H16.2857V10.8571H14.9286V12.2143H13.5714V13.5714H12.2143V14.9286H10.8571V16.2857H9.5V19H8.14286V20.3571H6.78571V21.7143H5.42857V25.7857H4.07143V29.8571H2.71429V46.1429H4.07143V50.2143H5.42857V54.2857H6.78571V57H9.5V59.7143H10.8571V61.0714H12.2143V62.4286H13.5714V63.7857H14.9286V65.1429H16.2857V66.5H19V69.2143H21.7143V70.5714H25.7857V71.9286H31.2143V73.2857H44.7857V71.9286H50.2143V70.5714H54.2857V69.2143H57V66.5H59.7143V65.1429H61.0714V63.7857H62.4286V62.4286H63.7857V61.0714H65.1429V59.7143H66.5V57H69.2143V54.2857H70.5714V50.2143H71.9286V46.1429H73.2857V29.8571H71.9286V25.7857H70.5714V21.7143H69.2143V20.3571H67.8571V19H66.5V16.2857H65.1429V14.9286H63.7857V13.5714H62.4286V12.2143H61.0714V10.8571H59.7143V9.5H58.3571V8.14286H57V6.78571H54.2857V5.42857H46.1429V2.71429Z" fill="#1A1A3D"/>
<path d="M46.1429 2.71423V5.42852H54.2858V6.78566H57.0001V8.1428H58.3572V9.49995H59.7144V10.8571H61.0715V12.2142H62.4286V13.5714H63.7858V14.9285H65.1429V16.2857H66.5001V18.9999H67.8572V20.3571H69.2144V21.7142H70.5715V25.7857H71.9286V29.8571H73.2858V46.1428H71.9286V50.2142H70.5715V54.2857H69.2144V56.9999H66.5001V59.7142H65.1429V61.0714H63.7858V62.4285H62.4286V63.7857H61.0715V65.1428H59.7144V66.4999H57.0001V69.2142H54.2858V70.5714H50.2144V71.9285H44.7858V73.2857H31.2144V71.9285H25.7858V70.5714H21.7144V69.2142H19.0001V66.4999H16.2858V65.1428H14.9286V63.7857H13.5715V62.4285H12.2144V61.0714H10.8572V59.7142H9.50007V56.9999H6.78578V54.2857H5.42864V50.2142H4.0715V46.1428H2.71436V29.8571H4.0715V25.7857H5.42864V21.7142H6.78578V20.3571H8.14293V18.9999H9.50007V16.2857H10.8572V14.9285H12.2144V13.5714H13.5715V12.2142H14.9286V10.8571H16.2858V9.49995H17.6429V8.1428H19.0001V6.78566H21.7144V5.42852H29.8572V2.71423H46.1429ZM59.7144 14.9285H24.4286V29.8571H28.5001V46.1428H16.2858V61.0714H55.6429V29.8571H59.7144V14.9285Z" fill="#2A67FB"/>
<path d="M59.7142 14.9286V29.8572H55.6428V61.0714H16.2856V46.1429H28.4999V29.8572H24.4285V14.9286H59.7142ZM56.9999 17.6429H27.1428V27.1429H56.9999V17.6429ZM21.7142 55.6429V51.5714H33.9285V29.8572H31.2142V48.8572H18.9999C19.0064 51.1179 18.9921 53.3822 18.9999 55.6429C19.0035 56.5464 18.9978 57.4536 18.9999 58.3572H52.9285V55.6429H21.7142Z" fill="#1A1A3D"/>
<path d="M57 17.6428H27.1428V27.1428H57V17.6428Z" fill="#2A67FB"/>
<path d="M19 55.6429C18.9921 53.3822 19.0064 51.1179 19 48.8572H31.2143V29.8572H33.9286V51.5715H21.7143V55.6429H19Z" fill="#F2F4FC"/>
<path d="M21.7143 55.6428H52.9286V58.3571H19C18.9979 57.4535 19.0036 56.5464 19 55.6428H21.7143Z" fill="#384271"/>
</g>
<defs>
<clipPath id="clip0_149_70">
<rect width="76" height="76" fill="white"/>
</clipPath>
</defs>
</svg>
