<svg width="75" height="76" viewBox="0 0 75 76" fill="none" xmlns="http://www.w3.org/2000/svg">
<g clip-path="url(#clip0_149_81)">
<path d="M45.5357 0V1.35714H49.5536V2.71429H53.5714V4.07143H56.25V5.42857H58.9286V6.78571H60.2679V8.14286H61.6071V9.5H62.9464V10.8571H64.2857V12.2143H65.625V13.5714H66.9643V14.9286H68.3036V17.6429H69.6429V19H70.9821V21.7143H72.3214V25.7857H73.6607V29.8571H75V46.1429H73.6607V50.2143H72.3214V54.2857H70.9821V57H69.6429V58.3571H68.3036V61.0714H66.9643V62.4286H65.625V63.7857H64.2857V65.1429H62.9464V66.5H61.6071V67.8571H60.2679V69.2143H57.5893V70.5714H56.25V71.9286H53.5714V73.2857H49.5536V74.6429H45.5357V76H29.4643V74.6429H25.4464V73.2857H21.4286V71.9286H18.75V70.5714H17.4107V69.2143H14.7321V67.8571H13.3929V66.5H12.0536V65.1429H10.7143V63.7857H9.375V62.4286H8.03571V61.0714H6.69643V58.3571H5.35714V57H4.01786V54.2857H2.67857V50.2143H1.33929V46.1429H0V29.8571H1.33929V25.7857H2.67857V21.7143H4.01786V19H5.35714V17.6429H6.69643V14.9286H8.03571V13.5714H9.375V12.2143H10.7143V10.8571H12.0536V9.5H13.3929V8.14286H14.7321V6.78571H16.0714V5.42857H18.75V4.07143H21.4286V2.71429H25.4464V1.35714H29.4643V0H45.5357ZM45.5357 2.71429H29.4643V5.42857H21.4286V6.78571H18.75V8.14286H17.4107V9.5H16.0714V10.8571H14.7321V12.2143H13.3929V13.5714H12.0536V14.9286H10.7143V16.2857H9.375V19H8.03571V20.3571H6.69643V21.7143H5.35714V25.7857H4.01786V29.8571H2.67857V46.1429H4.01786V50.2143H5.35714V54.2857H6.69643V57H9.375V59.7143H10.7143V61.0714H12.0536V62.4286H13.3929V63.7857H14.7321V65.1429H16.0714V66.5H18.75V69.2143H21.4286V70.5714H25.4464V71.9286H30.8036V73.2857H44.1964V71.9286H49.5536V70.5714H53.5714V69.2143H56.25V66.5H58.9286V65.1429H60.2679V63.7857H61.6071V62.4286H62.9464V61.0714H64.2857V59.7143H65.625V57H68.3036V54.2857H69.6429V50.2143H70.9821V46.1429H72.3214V29.8571H70.9821V25.7857H69.6429V21.7143H68.3036V20.3571H66.9643V19H65.625V16.2857H64.2857V14.9286H62.9464V13.5714H61.6071V12.2143H60.2679V10.8571H58.9286V9.5H57.5893V8.14286H56.25V6.78571H53.5714V5.42857H45.5357V2.71429Z" fill="#1A1A3D"/>
<path d="M45.5356 2.71423V5.42852H53.5713V6.78566H56.2499V8.1428H57.5892V9.49995H58.9285V10.8571H60.2677V12.2142H61.607V13.5714H62.9463V14.9285H64.2856V16.2857H65.6249V18.9999H66.9642V20.3571H68.3035V21.7142H69.6427V25.7857H70.982V29.8571H72.3213V46.1428H70.982V50.2142H69.6427V54.2857H68.3035V56.9999H65.6249V59.7142H64.2856V61.0714H62.9463V62.4285H61.607V63.7857H60.2677V65.1428H58.9285V66.4999H56.2499V69.2142H53.5713V70.5714H49.5535V71.9285H44.1963V73.2857H30.8035V71.9285H25.4463V70.5714H21.4285V69.2142H18.7499V66.4999H16.0713V65.1428H14.732V63.7857H13.3928V62.4285H12.0535V61.0714H10.7142V59.7142H9.37489V56.9999H6.69632V54.2857H5.35704V50.2142H4.01775V46.1428H2.67847V29.8571H4.01775V25.7857H5.35704V21.7142H6.69632V20.3571H8.03561V18.9999H9.37489V16.2857H10.7142V14.9285H12.0535V13.5714H13.3928V12.2142H14.732V10.8571H16.0713V9.49995H17.4106V8.1428H18.7499V6.78566H21.4285V5.42852H29.4642V2.71423H45.5356ZM48.2142 17.6428H28.1249V18.9999H26.7856V20.3571H25.4463V21.7142H24.107V23.0714H22.7678V24.4285H21.4285V25.7857H20.0892V28.4999H17.4106V35.2857H16.0713V39.3571H14.732V43.4285H13.3928V44.7857H9.37489V52.9285H14.732V54.2857H53.5713V52.9285H56.2499V51.5714H58.9285V50.2142H61.607V48.8571H65.6249V40.7142H61.607V36.6428H60.2677V32.5714H58.9285V29.8571H57.5892V28.4999H56.2499V27.1428H54.9106V25.7857H53.5713V24.4285H52.232V23.0714H50.8927V21.7142H49.5535V20.3571H48.2142V17.6428Z" fill="#2A67FB"/>
<path d="M48.2143 17.6428V20.3571H49.5536V21.7143H50.8929V23.0714H52.2321V24.4285H53.5714V25.7857H54.9107V27.1428H56.25V28.5H57.5893V29.8571H58.9286V32.5714H60.2679V36.6428H61.6071V40.7142H65.625V48.8571H61.6071V50.2142H58.9286V51.5714H56.25V52.9285H53.5714V54.2857H14.7321V52.9285H9.375V44.7857H13.3929V43.4285H14.7321V39.3571H16.0714V35.2857H17.4107V28.5H20.0893V25.7857H21.4286V24.4285H22.7679V23.0714H24.1071V21.7143H25.4464V20.3571H26.7857V19H28.125V17.6428H48.2143ZM28.125 35.2857C28.1454 31.6678 28.1095 28.0464 28.125 24.4285H30.8036V23.0714H45.5357V24.4285H46.875V25.7857H48.2143V27.1428H49.5536V24.4285H48.2143V23.0714H46.875V21.7143H45.5357V20.3571H29.4643V21.7143H28.125V23.0714H26.7857V24.4285H25.4464C25.4619 28.0464 25.426 31.6678 25.4464 35.2857C25.0009 35.2828 24.5526 35.2878 24.1071 35.2857V27.1428H22.7679V28.5H21.4286V31.2143H20.0893V35.2857H18.75V39.3571H17.4107V43.4285H16.0714V47.5H12.0536V50.2142H16.0714V51.5714H52.2321V50.2142H54.9107V48.8571H57.5893V47.5H60.2679V46.1428H62.9464V43.4285H58.9286V39.3571H57.5893V35.2857H56.25V31.2143H54.9107V29.8571H53.5714V28.5H52.2321V27.1428H50.8929V28.5H46.875V27.1428H45.5357V25.7857H44.1964V24.4285H32.1429V25.7857H29.4643V35.2857C29.0188 35.2878 28.5705 35.2828 28.125 35.2857Z" fill="#1A1A3D"/>
<path d="M28.1249 35.2858C28.1221 35.7372 28.127 36.1915 28.1249 36.6429H25.4463C25.4442 36.1915 25.4492 35.7372 25.4463 35.2858C26.338 35.2908 27.2332 35.2908 28.1249 35.2858Z" fill="#1A1A3D"/>
<path d="M25.4464 35.2857C25.426 31.6679 25.4619 28.0465 25.4464 24.4286H26.7857V23.0715H28.125V21.7143H29.4643V20.3572H45.5357V21.7143H46.875V23.0715H48.2143V24.4286H49.5535V27.1429H48.2143V25.7857H46.875V24.4286H45.5357V23.0715H30.8036V24.4286H28.125C28.1095 28.0465 28.1454 31.6679 28.125 35.2857C27.2333 35.2907 26.3381 35.2907 25.4464 35.2857Z" fill="#FEC10E"/>
<path d="M28.1249 35.2857C28.5704 35.2829 29.0187 35.2879 29.4642 35.2857V25.7857H32.1428V24.4286H44.1963V25.7857H45.5356V27.1429H46.8749V28.5H50.8927V27.1429H52.232V28.5H53.5713V29.8572H54.9106V31.2143H56.2499V35.2857H57.5892V39.3572H58.9285V43.4286H62.9463V46.1429H60.2677V47.5H57.5892V48.8572H54.9106V50.2143H52.232V51.5714H16.0713V50.2143H12.0535V47.5H16.0713V43.4286H17.4106V39.3572H18.7499V35.2857H20.0892V31.2143H21.4285V28.5H22.7678V27.1429H24.107V35.2857C24.5525 35.2879 25.0008 35.2829 25.4463 35.2857C25.4491 35.7372 25.4442 36.1914 25.4463 36.6429H28.1249C28.127 36.1914 28.1221 35.7372 28.1249 35.2857ZM42.857 25.7857H37.4999V31.2143H38.8392V32.5714H40.1785V33.9286H41.5177V35.2857H42.857V36.6429H44.1963V38H45.5356V39.3572H46.8749V42.0714H52.232V35.2857H50.8927V33.9286H49.5535V32.5714H48.2142V31.2143H46.8749V29.8572H45.5356V28.5H44.1963V27.1429H42.857V25.7857ZM57.5892 44.7857H53.5713V46.1429H50.8927V47.5H18.7499V48.8572H52.232V47.5H54.9106V46.1429H57.5892V44.7857Z" fill="#FEC10E"/>
<path d="M42.8571 25.7858V27.1429H44.1964V28.5001H45.5357V29.8572H46.875V31.2143H48.2143V32.5715H49.5536V33.9286H50.8929V35.2858H52.2321V42.0715H46.875V39.3572H45.5357V38.0001H44.1964V36.6429H42.8571V35.2858H41.5179V33.9286H40.1786V32.5715H38.8393V31.2143H37.5V25.7858H42.8571ZM41.5179 27.1429H38.8393V29.8572H40.1786V31.2143H41.5179V32.5715H42.8571V33.9286H44.1964V35.2858H45.5357V36.6429H46.875V38.0001H48.2143V40.7143H50.8929V36.6429H49.5536V35.2858H48.2143V33.9286H46.875V32.5715H45.5357V31.2143H44.1964V29.8572H42.8571V28.5001H41.5179V27.1429Z" fill="#1A1A3D"/>
<path d="M57.5893 44.7858V46.1429H54.9107V47.5001H52.2321V48.8572H18.75V47.5001H50.8929V46.1429H53.5714V44.7858H57.5893Z" fill="#1A1A3D"/>
<path d="M41.5179 27.1428V28.5H42.8572V29.8571H44.1965V31.2143H45.5358V32.5714H46.8751V33.9285H48.2144V35.2857H49.5536V36.6428H50.8929V40.7143H48.2144V38H46.8751V36.6428H45.5358V35.2857H44.1965V33.9285H42.8572V32.5714H41.5179V31.2143H40.1786V29.8571H38.8394V27.1428H41.5179Z" fill="#FEC10E"/>
</g>
<defs>
<clipPath id="clip0_149_81">
<rect width="75" height="76" fill="white"/>
</clipPath>
</defs>
</svg>
