<svg width="76" height="76" viewBox="0 0 76 76" fill="none" xmlns="http://www.w3.org/2000/svg">
<path d="M46.1429 0V1.35714H50.2143V2.71429H54.2857V4.07143H57V5.42857H59.7143V6.78571H61.0714V8.14286H62.4286V9.5H63.7857V10.8571H65.1429V12.2143H66.5V13.5714H67.8571V14.9286H69.2143V17.6429H70.5714V19H71.9286V21.7143H73.2857V25.7857H74.6429V29.8571H76V46.1429H74.6429V50.2143H73.2857V54.2857H71.9286V57H70.5714V58.3571H69.2143V61.0714H67.8571V62.4286H66.5V63.7857H65.1429V65.1429H63.7857V66.5H62.4286V67.8571H61.0714V69.2143H58.3571V70.5714H57V71.9286H54.2857V73.2857H50.2143V74.6429H46.1429V76H29.8571V74.6429H25.7857V73.2857H21.7143V71.9286H19V70.5714H17.6429V69.2143H14.9286V67.8571H13.5714V66.5H12.2143V65.1429H10.8571V63.7857H9.5V62.4286H8.14286V61.0714H6.78571V58.3571H5.42857V57H4.07143V54.2857H2.71429V50.2143H1.35714V46.1429H0V29.8571H1.35714V25.7857H2.71429V21.7143H4.07143V19H5.42857V17.6429H6.78571V14.9286H8.14286V13.5714H9.5V12.2143H10.8571V10.8571H12.2143V9.5H13.5714V8.14286H14.9286V6.78571H16.2857V5.42857H19V4.07143H21.7143V2.71429H25.7857V1.35714H29.8571V0H46.1429ZM46.1429 2.71429H29.8571V5.42857H21.7143V6.78571H19V8.14286H17.6429V9.5H16.2857V10.8571H14.9286V12.2143H13.5714V13.5714H12.2143V14.9286H10.8571V16.2857H9.5V19H8.14286V20.3571H6.78571V21.7143H5.42857V25.7857H4.07143V29.8571H2.71429V46.1429H4.07143V50.2143H5.42857V54.2857H6.78571V57H9.5V59.7143H10.8571V61.0714H12.2143V62.4286H13.5714V63.7857H14.9286V65.1429H16.2857V66.5H19V69.2143H21.7143V70.5714H25.7857V71.9286H31.2143V73.2857H44.7857V71.9286H50.2143V70.5714H54.2857V69.2143H57V66.5H59.7143V65.1429H61.0714V63.7857H62.4286V62.4286H63.7857V61.0714H65.1429V59.7143H66.5V57H69.2143V54.2857H70.5714V50.2143H71.9286V46.1429H73.2857V29.8571H71.9286V25.7857H70.5714V21.7143H69.2143V20.3571H67.8571V19H66.5V16.2857H65.1429V14.9286H63.7857V13.5714H62.4286V12.2143H61.0714V10.8571H59.7143V9.5H58.3571V8.14286H57V6.78571H54.2857V5.42857H46.1429V2.71429Z" fill="#1A1A3D"/>
<path d="M46.1429 2.71429V5.42857H54.2857V6.78571H57V8.14286H58.3571V9.5H59.7143V10.8571H61.0714V12.2143H62.4286V13.5714H63.7857V14.9286H65.1429V16.2857H66.5V19H67.8571V20.3571H69.2143V21.7143H70.5714V25.7857H71.9286V29.8571H73.2857V46.1429H71.9286V50.2143H70.5714V54.2857H69.2143V57H66.5V59.7143H65.1429V61.0714H63.7857V62.4286H62.4286V63.7857H61.0714V65.1429H59.7143V66.5H57V69.2143H54.2857V70.5714H50.2143V71.9286H44.7857V73.2857H31.2143V71.9286H25.7857V70.5714H21.7143V69.2143H19V66.5H16.2857V65.1429H14.9286V63.7857H13.5714V62.4286H12.2143V61.0714H10.8571V59.7143H9.5V57H6.78571V54.2857H5.42857V50.2143H4.07143V46.1429H2.71429V29.8571H4.07143V25.7857H5.42857V21.7143H6.78571V20.3571H8.14286V19H9.5V16.2857H10.8571V14.9286H12.2143V13.5714H13.5714V12.2143H14.9286V10.8571H16.2857V9.5H17.6429V8.14286H19V6.78571H21.7143V5.42857H29.8571V2.71429H46.1429ZM57 13.5714H19V62.4286H57V13.5714Z" fill="#2A67FB"/>
<path d="M57 13.5714V62.4286H19V13.5714H57ZM54.2857 16.2857H21.7143V59.7143H54.2857V16.2857Z" fill="#1A1A3D"/>
<path d="M54.2857 16.2857V59.7143H21.7143V16.2857H54.2857ZM51.5714 50.2143C51.6029 41.6207 51.5479 33.0221 51.5714 24.4286H50.2143V21.7143H48.8571V20.3571H46.1429V19H42.0714V20.3571H39.3571V21.7143H38C37.9957 22.1657 38.0057 22.62 38 23.0714H24.4286V25.7857H36.6429C36.6379 26.6893 36.6443 27.5964 36.6429 28.5H24.4286V31.2143H36.6429C36.6421 32.1179 36.6429 33.025 36.6429 33.9286H24.4286V36.6429H36.6429C36.6429 37.5464 36.6429 38.4536 36.6429 39.3571H24.4286V42.0714H36.6429V44.7857H24.4286V47.5H36.6429V50.2143C32.5729 50.2157 28.4986 50.2129 24.4286 50.2143V52.9286H51.5714C51.5736 52.025 51.5679 51.1179 51.5714 50.2143Z" fill="#F2F4FC"/>
<path d="M38 23.0714C38.0057 22.62 37.9957 22.1657 38 21.7143H39.3571V20.3571H42.0714V19H46.1429V20.3571H48.8571V21.7143H50.2143V24.4286H51.5714C51.5479 33.0221 51.6029 41.6207 51.5714 50.2143H48.8571V48.8571H47.5V47.5C47.0486 47.4979 46.5943 47.5029 46.1429 47.5V46.1429H44.7857V44.7857H43.4286V46.1429H42.0714V47.5C41.62 47.5029 41.1657 47.4979 40.7143 47.5V48.8571H39.3571V50.2143C38.4536 50.2143 37.5464 50.2143 36.6429 50.2143V39.3571C36.6429 38.4536 36.6429 37.5464 36.6429 36.6429C36.6429 35.7393 36.6429 34.8321 36.6429 33.9286C36.6429 33.025 36.6421 32.1179 36.6429 31.2143C36.6436 30.3107 36.6414 29.4036 36.6429 28.5C36.6443 27.5964 36.6379 26.6893 36.6429 25.7857C36.6457 25.3343 36.6407 24.88 36.6429 24.4286H38C38.0043 23.9771 37.9943 23.5229 38 23.0714ZM46.1429 21.7143H42.0714V23.0714H40.7143V24.4286H39.3571V28.5H40.7143V29.8571H42.0714V31.2143H46.1429V29.8571H47.5V28.5H48.8571V24.4286H47.5V23.0714H46.1429V21.7143ZM42.0714 32.5714H39.3571V44.7857H40.7143V43.4286H42.0714V42.0714H43.4286V40.7143H44.7857V42.0714H46.1429V43.4286H47.5V44.7857H48.8571V32.5714H46.1429V33.9286H42.0714V32.5714Z" fill="#1A1A3D"/>
<path d="M36.6429 50.2143C37.5464 50.2143 38.4536 50.2143 39.3571 50.2143H51.5714C51.5679 51.1179 51.5736 52.025 51.5714 52.9286H24.4286V50.2143C28.4986 50.2129 32.5729 50.2157 36.6429 50.2143Z" fill="#384271"/>
<path d="M38 23.0714C37.9943 23.5229 38.0043 23.9771 38 24.4286H36.6429C36.6407 24.88 36.6457 25.3343 36.6429 25.7857H24.4286V23.0714H38Z" fill="#384271"/>
<path d="M36.6429 28.5C36.6414 29.4036 36.6436 30.3107 36.6429 31.2143H24.4286V28.5H36.6429Z" fill="#384271"/>
<path d="M36.6429 33.9286C36.6429 34.8321 36.6429 35.7393 36.6429 36.6429H24.4286V33.9286H36.6429Z" fill="#384271"/>
<path d="M36.6429 39.3571H24.4286V42.0714H36.6429V39.3571Z" fill="#384271"/>
<path d="M36.6429 44.7857H24.4286V47.5H36.6429V44.7857Z" fill="#384271"/>
<path d="M42.0714 32.5714V33.9286H46.1429V32.5714H48.8571V44.7857H47.5V43.4286H46.1429V42.0714H44.7857V40.7143H43.4286V42.0714H42.0714V43.4286H40.7143V44.7857H39.3571V32.5714H42.0714Z" fill="#FF196C"/>
<path d="M46.1429 21.7143V23.0714H47.5V24.4286H48.8571V28.5H47.5V29.8571H46.1429V31.2143H42.0714V29.8571H40.7143V28.5H39.3571V24.4286H40.7143V23.0714H42.0714V21.7143H46.1429Z" fill="#FEC10E"/>
<path d="M42.0714 47.5C43.4271 47.4921 44.7871 47.4921 46.1429 47.5C46.5943 47.5029 47.0486 47.4979 47.5 47.5V48.8571H48.8571V50.2143H39.3571V48.8571H40.7143V47.5C41.1657 47.4979 41.62 47.5029 42.0714 47.5Z" fill="#F2F4FC"/>
<path d="M42.0714 47.5V46.1429H43.4286V44.7857H44.7857V46.1429H46.1429V47.5C44.7871 47.4921 43.4271 47.4921 42.0714 47.5Z" fill="#384271"/>
</svg>
