<?xml version="1.0" encoding="UTF-8"?>
<svg id="Capa_1" xmlns="http://www.w3.org/2000/svg" version="1.1" viewBox="0 0 360 480">
  <!-- Generator: Adobe Illustrator 29.5.1, SVG Export Plug-In . SVG Version: 2.1.0 Build 141)  -->
  <defs>
    <style>
      .st0 {
        fill: #abb2d9;
      }

      .st1 {
        fill: #d0d7f0;
      }

      .st2 {
        fill: #e8ebf9;
      }

      .st3 {
        fill: #f2f4fc;
      }

      .st4 {
        fill: #2a67fb;
      }

      .st5 {
        fill: #e0e5f6;
      }

      .st6 {
        fill: #bdc2e2;
      }
    </style>
  </defs>
  <rect class="st4" width="360" height="480"/>
  <g>
    <rect class="st1" y="108.72" width="151.28" height="371.28"/>
    <rect class="st5" x="13.02" y="147.11" width="20.01" height="20.01"/>
    <rect class="st5" x="39.02" y="147.11" width="20.01" height="20.01"/>
    <rect class="st5" x="65.02" y="147.11" width="20.01" height="20.01"/>
    <rect class="st5" x="91.02" y="147.11" width="20.01" height="20.01"/>
    <rect class="st5" x="117.02" y="147.11" width="20.01" height="20.01"/>
    <rect class="st5" x="13.02" y="173.11" width="20.01" height="20.01"/>
    <rect class="st5" x="39.02" y="173.11" width="20.01" height="20.01"/>
    <rect class="st5" x="65.02" y="173.11" width="20.01" height="20.01"/>
    <rect class="st5" x="91.02" y="173.11" width="20.01" height="20.01"/>
    <rect class="st5" x="117.02" y="173.11" width="20.01" height="20.01"/>
    <rect class="st5" x="13.02" y="199.11" width="20.01" height="20.01"/>
    <rect class="st5" x="39.02" y="199.11" width="20.01" height="20.01"/>
    <rect class="st5" x="65.02" y="199.11" width="20.01" height="20.01"/>
    <rect class="st5" x="91.02" y="199.11" width="20.01" height="20.01"/>
    <rect class="st5" x="117.02" y="199.11" width="20.01" height="20.01"/>
    <rect class="st5" x="13.02" y="225.11" width="20.01" height="20.01"/>
    <rect class="st5" x="39.02" y="225.11" width="20.01" height="20.01"/>
    <rect class="st5" x="65.02" y="225.11" width="20.01" height="20.01"/>
    <rect class="st5" x="91.02" y="225.11" width="20.01" height="20.01"/>
    <rect class="st5" x="117.02" y="225.11" width="20.01" height="20.01"/>
    <rect class="st5" x="13.02" y="250.11" width="20.01" height="20.01"/>
    <rect class="st5" x="39.02" y="250.11" width="20.01" height="20.01"/>
    <rect class="st5" x="65.02" y="250.11" width="20.01" height="20.01"/>
    <rect class="st5" x="91.02" y="250.11" width="20.01" height="20.01"/>
    <rect class="st5" x="117.02" y="250.11" width="20.01" height="20.01"/>
    <rect class="st5" x="13.02" y="276.11" width="20.01" height="20.01"/>
    <rect class="st5" x="39.02" y="276.11" width="20.01" height="20.01"/>
    <rect class="st5" x="65.02" y="276.11" width="20.01" height="20.01"/>
    <rect class="st5" x="91.02" y="276.11" width="20.01" height="20.01"/>
    <rect class="st5" x="117.02" y="276.11" width="20.01" height="20.01"/>
    <rect class="st5" x="13.02" y="302.11" width="20.01" height="20.01"/>
    <rect class="st5" x="39.02" y="302.11" width="20.01" height="20.01"/>
    <rect class="st5" x="65.02" y="302.11" width="20.01" height="20.01"/>
    <rect class="st5" x="91.02" y="302.11" width="20.01" height="20.01"/>
    <rect class="st5" x="117.02" y="302.11" width="20.01" height="20.01"/>
    <rect class="st5" x="13.02" y="328.11" width="20.01" height="20.01"/>
    <rect class="st5" x="39.02" y="328.11" width="20.01" height="20.01"/>
    <rect class="st5" x="65.02" y="328.11" width="20.01" height="20.01"/>
    <rect class="st5" x="91.02" y="328.11" width="20.01" height="20.01"/>
    <rect class="st5" x="117.02" y="328.11" width="20.01" height="20.01"/>
    <rect class="st5" x="13.02" y="354.11" width="20.01" height="20.01"/>
    <rect class="st5" x="39.02" y="354.11" width="20.01" height="20.01"/>
    <rect class="st5" x="65.02" y="354.11" width="20.01" height="20.01"/>
    <rect class="st5" x="91.02" y="354.11" width="20.01" height="20.01"/>
    <rect class="st5" x="117.02" y="354.11" width="20.01" height="20.01"/>
    <rect class="st5" x="13.02" y="380.11" width="20.01" height="20.01"/>
    <rect class="st5" x="39.02" y="380.11" width="20.01" height="20.01"/>
    <rect class="st5" x="65.02" y="380.11" width="20.01" height="20.01"/>
    <rect class="st5" x="91.02" y="380.11" width="20.01" height="20.01"/>
    <rect class="st5" x="117.02" y="380.11" width="20.01" height="20.01"/>
    <rect class="st5" x="13.02" y="406.11" width="20.01" height="20.01"/>
    <rect class="st5" x="39.02" y="406.11" width="20.01" height="20.01"/>
    <rect class="st5" x="65.02" y="406.11" width="20.01" height="20.01"/>
    <rect class="st5" x="91.02" y="406.11" width="20.01" height="20.01"/>
    <rect class="st5" x="117.02" y="406.11" width="20.01" height="20.01"/>
    <rect class="st5" x="13.02" y="432.11" width="20.01" height="20.01"/>
    <rect class="st5" x="39.02" y="432.11" width="20.01" height="20.01"/>
    <rect class="st5" x="65.02" y="432.11" width="20.01" height="20.01"/>
    <rect class="st5" x="91.02" y="432.11" width="20.01" height="20.01"/>
    <rect class="st5" x="117.02" y="432.11" width="20.01" height="20.01"/>
  </g>
  <g>
    <polygon class="st0" points="274.71 125.12 274.71 84.27 250.16 84.27 250.16 54.46 228.76 54.46 228.76 29.12 209.42 29.12 209.42 54.46 188.11 54.46 188.11 84.27 164.1 84.27 164.1 125.12 149.79 125.12 149.79 480 302.22 480 302.22 125.12 274.71 125.12"/>
    <rect class="st6" x="177.96" y="137.04" width="20.2" height="10.06"/>
    <rect class="st6" x="203.96" y="137.04" width="20.2" height="10.06"/>
    <rect class="st6" x="229.96" y="137.04" width="20.2" height="10.06"/>
    <rect class="st6" x="255.96" y="137.04" width="20.2" height="10.06"/>
    <rect class="st6" x="281.9" y="137.04" width="20.2" height="10.06"/>
    <rect class="st6" x="177.96" y="151.04" width="20.2" height="10.06"/>
    <rect class="st6" x="203.96" y="151.04" width="20.2" height="10.06"/>
    <rect class="st6" x="229.96" y="151.04" width="20.2" height="10.06"/>
    <rect class="st6" x="255.96" y="151.04" width="20.2" height="10.06"/>
    <rect class="st6" x="281.9" y="151.04" width="20.2" height="10.06"/>
    <rect class="st6" x="177.99" y="164.51" width="20.2" height="10.06"/>
    <rect class="st6" x="203.99" y="164.51" width="20.2" height="10.06"/>
    <rect class="st6" x="229.99" y="164.51" width="20.2" height="10.06"/>
    <rect class="st6" x="255.99" y="164.51" width="20.2" height="10.06"/>
    <rect class="st6" x="281.93" y="164.51" width="20.2" height="10.06"/>
    <rect class="st6" x="177.99" y="177.67" width="20.2" height="10.06"/>
    <rect class="st6" x="203.99" y="177.67" width="20.2" height="10.06"/>
    <rect class="st6" x="229.99" y="177.67" width="20.2" height="10.06"/>
    <rect class="st6" x="255.99" y="177.67" width="20.2" height="10.06"/>
    <rect class="st6" x="281.93" y="177.67" width="20.2" height="10.06"/>
    <rect class="st6" x="177.99" y="190.67" width="20.2" height="10.06"/>
    <rect class="st6" x="203.99" y="190.67" width="20.2" height="10.06"/>
    <rect class="st6" x="229.99" y="190.67" width="20.2" height="10.06"/>
    <rect class="st6" x="255.99" y="190.67" width="20.2" height="10.06"/>
    <rect class="st6" x="281.93" y="190.67" width="20.2" height="10.06"/>
    <rect class="st6" x="177.99" y="204.43" width="20.2" height="10.06"/>
    <rect class="st6" x="203.99" y="204.43" width="20.2" height="10.06"/>
    <polygon class="st6" points="247 210.05 247 211 239.99 211 240 214.49 229.99 214.49 229.99 204.43 250.19 204.43 250.19 210.05 247 210.05"/>
    <polygon class="st6" points="276.19 206.01 275.02 206.01 275.02 207.01 267.99 207 267.99 207.99 260.98 208 260.98 208.99 255.99 209.01 255.99 204.43 276.19 204.43 276.19 206.01"/>
    <rect class="st6" x="177.99" y="217.67" width="20.2" height="10.06"/>
    <rect class="st6" x="203.99" y="217.67" width="20.2" height="10.06"/>
    <rect class="st6" x="229.99" y="217.67" width="9.98" height="10.06"/>
    <rect class="st6" x="177.99" y="231.67" width="20.2" height="10.06"/>
    <rect class="st6" x="203.99" y="231.67" width="20.2" height="10.06"/>
    <rect class="st6" x="229.99" y="231.67" width="9.98" height="10.06"/>
    <rect class="st6" x="177.99" y="245.42" width="20.2" height="10.06"/>
    <polygon class="st6" points="214.98 246.98 215.01 255.48 203.99 255.48 203.99 245.42 224.19 245.42 224.19 246.98 214.98 246.98"/>
    <rect class="st6" x="229.99" y="245.42" width="9.98" height="1.56"/>
    <rect class="st6" x="177.99" y="258.95" width="20.2" height="10.06"/>
    <rect class="st6" x="203.99" y="258.95" width="10.96" height="10.06"/>
    <rect class="st6" x="177.99" y="272.48" width="20.2" height="10.06"/>
    <rect class="st6" x="203.99" y="272.48" width="10.96" height="10.06"/>
    <rect class="st6" x="177.99" y="286" width="20.2" height="10.06"/>
    <rect class="st6" x="203.99" y="286" width="10.96" height="10.06"/>
    <rect class="st6" x="177.99" y="300.03" width="20.2" height="10.06"/>
    <rect class="st6" x="203.99" y="300.03" width="10.96" height="10.06"/>
    <rect class="st6" x="178.01" y="314.06" width="20.2" height="10.06"/>
    <rect class="st6" x="204.01" y="314.06" width="10.96" height="10.06"/>
    <rect class="st6" x="177.99" y="327.42" width="20.2" height="10.06"/>
    <rect class="st6" x="203.99" y="327.42" width="10.96" height="10.06"/>
    <rect class="st6" x="178.01" y="341.06" width="20.2" height="10.06"/>
    <rect class="st6" x="204.01" y="341.06" width="10.96" height="10.06"/>
    <rect class="st6" x="177.99" y="353.92" width="20.2" height="10.06"/>
    <rect class="st6" x="203.99" y="353.92" width="10.96" height="10.06"/>
    <rect class="st6" x="177.99" y="367.37" width="20.2" height="10.06"/>
    <rect class="st6" x="203.99" y="367.37" width="10.96" height="10.06"/>
    <rect class="st6" x="177.93" y="380.83" width="20.2" height="10.06"/>
    <rect class="st6" x="203.93" y="380.83" width="10.96" height="10.06"/>
    <rect class="st6" x="177.94" y="394.91" width="20.2" height="10.06"/>
    <rect class="st6" x="203.94" y="394.91" width="10.96" height="10.06"/>
    <rect class="st6" x="177.94" y="408.48" width="20.2" height="10.06"/>
    <rect class="st6" x="203.94" y="408.48" width="10.96" height="10.06"/>
    <rect class="st6" x="177.94" y="422.04" width="20.2" height="10.06"/>
    <rect class="st6" x="203.94" y="422.04" width="10.96" height="10.06"/>
    <rect class="st6" x="177.94" y="435.39" width="20.2" height="10.06"/>
    <rect class="st6" x="203.94" y="435.39" width="10.96" height="10.06"/>
    <rect class="st6" x="177.94" y="449.06" width="20.2" height="10.06"/>
    <rect class="st6" x="203.94" y="449.06" width="10.96" height="10.06"/>
    <rect class="st6" x="177.94" y="462.93" width="20.2" height="10.06"/>
    <rect class="st6" x="203.94" y="462.93" width="10.96" height="10.06"/>
    <rect class="st6" x="177.94" y="476.98" width="20.2" height="3.02"/>
    <rect class="st6" x="203.94" y="476.98" width="10.96" height="3.02"/>
  </g>
  <g>
    <rect class="st1" x="214.98" y="246.98" width="145.02" height="233.02"/>
    <rect class="st2" x="225.22" y="272.99" width="9.75" height="115.23"/>
    <rect class="st2" x="244.22" y="272.99" width="9.75" height="115.23"/>
    <rect class="st2" x="264.22" y="272.99" width="9.75" height="115.23"/>
    <rect class="st2" x="283.22" y="272.99" width="9.75" height="115.23"/>
    <rect class="st2" x="302.22" y="272.99" width="9.75" height="115.23"/>
    <rect class="st2" x="321.22" y="272.99" width="9.75" height="115.23"/>
    <rect class="st2" x="341.22" y="272.99" width="9.75" height="115.23"/>
    <rect class="st2" x="225.22" y="397.2" width="125.75" height="10.84"/>
    <rect class="st2" x="225.22" y="416.99" width="36.63" height="63.01"/>
    <rect class="st2" x="270.22" y="416.99" width="36.63" height="63.01"/>
    <rect class="st2" x="314.22" y="416.99" width="36.63" height="63.01"/>
    <g>
      <rect class="st1" x="239.88" y="210.98" width="113.09" height="40.32"/>
      <rect class="st1" x="247" y="209.92" width="7.12" height="1.68"/>
      <rect class="st1" x="254" y="208.89" width="7.12" height="2.7"/>
      <rect class="st1" x="260.92" y="207.96" width="7.12" height="3.39"/>
      <rect class="st1" x="267.93" y="206.92" width="7.08" height="5.2"/>
      <rect class="st1" x="274.91" y="205.93" width="7.08" height="5.2"/>
      <rect class="st1" x="281.88" y="204.89" width="7.08" height="6.32"/>
      <rect class="st1" x="288.87" y="203.88" width="7.08" height="7.17"/>
      <rect class="st1" x="295.82" y="202.97" width="7.08" height="8.53"/>
      <rect class="st1" x="302.9" y="201.93" width="7.08" height="9.13"/>
      <rect class="st1" x="309.8" y="200.84" width="7.19" height="10.21"/>
      <rect class="st1" x="316.88" y="199.87" width="7.19" height="11.34"/>
      <rect class="st1" x="323.94" y="198.94" width="7.02" height="12.37"/>
      <rect class="st1" x="330.96" y="197.86" width="7.08" height="13.45"/>
      <rect class="st1" x="337.93" y="196.89" width="7.16" height="14.63"/>
      <rect class="st1" x="344.9" y="195.94" width="8.07" height="16.49"/>
    </g>
  </g>
  <polygon class="st3" points="321.88 53.13 321.88 52.12 320.9 52.12 320.9 51.13 319.9 51.13 319.9 50.11 315.89 50.11 315.89 49.12 314.87 49.12 314.87 48.14 313.88 48.14 313.88 47.12 312.88 47.12 312.88 46.13 310.88 46.13 310.88 45.13 305.89 45.13 305.89 46.13 303.88 46.13 303.88 47.12 302.89 47.12 302.89 48.14 301.87 48.14 301.87 49.12 300.87 49.12 300.87 50.11 299.89 50.11 299.89 49.13 294.87 49.13 294.87 50.11 293.88 50.11 293.88 51.12 292.89 51.12 292.89 52.14 291.86 52.14 291.86 53.13 290.89 53.13 290.89 58.11 291.86 58.11 291.86 59.14 292.89 59.14 292.89 60.11 293.88 60.11 293.88 61.11 294.87 61.11 294.87 62.17 319.9 62.17 319.9 61.11 320.9 61.11 320.9 60.11 321.88 60.11 321.88 59.14 322.82 59.14 322.82 58.11 322.82 57.87 322.82 53.13 321.88 53.13"/>
  <polygon class="st3" points="105.55 53.42 104.54 53.42 104.54 51.4 103.53 51.4 103.53 50.4 102.53 50.4 102.53 49.36 100.58 49.36 100.58 48.39 96.63 48.39 96.63 46.39 95.57 46.39 95.57 45.37 93.53 45.37 93.53 44.35 91.56 44.35 91.56 43.47 86.6 43.47 86.6 42.4 85.53 42.4 85.53 41.4 84.53 41.4 84.53 40.39 82.54 40.39 82.54 39.44 80.61 39.44 80.61 38.43 73.49 38.43 73.49 39.44 71.48 39.44 71.48 40.39 69.49 40.39 69.49 41.4 68.51 41.4 68.51 42.4 67.56 42.4 67.56 43.47 66.53 43.47 66.53 45.37 65.58 45.37 65.58 47.41 64.52 47.41 64.52 54.45 65.58 54.45 65.58 56.49 66.53 56.49 66.53 58.42 67.56 58.42 67.56 59.4 68.51 59.4 68.51 60.49 69.49 60.49 69.49 61.47 71.48 61.47 71.48 62.51 73.49 62.51 73.49 63.4 100.58 63.4 100.58 62.44 102.53 62.44 102.53 61.47 103.53 61.47 103.53 60.49 104.54 60.49 104.54 58.42 105.55 58.42 105.55 53.42"/>
</svg>